<svg xmlns="http://www.w3.org/2000/svg" viewBox="0 0 400 250" fill="none">
  <rect width="400" height="250" fill="#08080c"/>
  <rect x="20" y="20" width="360" height="210" rx="8" fill="#12121a" stroke="#2a2a3a"/>

  <!-- Knobs row -->
  <circle cx="70" cy="80" r="20" fill="#1a1a25" stroke="#3a3a4a"/>
  <circle cx="70" cy="80" r="3" fill="#6366f1"/>
  <circle cx="130" cy="80" r="20" fill="#1a1a25" stroke="#3a3a4a"/>
  <circle cx="130" cy="80" r="3" fill="#6366f1"/>
  <circle cx="190" cy="80" r="20" fill="#1a1a25" stroke="#3a3a4a"/>
  <circle cx="190" cy="80" r="3" fill="#6366f1"/>
  <circle cx="250" cy="80" r="20" fill="#1a1a25" stroke="#3a3a4a"/>
  <circle cx="250" cy="80" r="3" fill="#6366f1"/>
  <circle cx="310" cy="80" r="20" fill="#1a1a25" stroke="#3a3a4a"/>
  <circle cx="310" cy="80" r="3" fill="#6366f1"/>

  <!-- Sequencer steps -->
  <g transform="translate(40, 140)">
    <rect x="0" y="0" width="18" height="30" rx="2" fill="#22c55e"/>
    <rect x="22" y="5" width="18" height="25" rx="2" fill="#1a1a25" stroke="#3a3a4a"/>
    <rect x="44" y="0" width="18" height="30" rx="2" fill="#6366f1"/>
    <rect x="66" y="8" width="18" height="22" rx="2" fill="#1a1a25" stroke="#3a3a4a"/>
    <rect x="88" y="3" width="18" height="27" rx="2" fill="#6366f1"/>
    <rect x="110" y="10" width="18" height="20" rx="2" fill="#1a1a25" stroke="#3a3a4a"/>
    <rect x="132" y="0" width="18" height="30" rx="2" fill="#22c55e"/>
    <rect x="154" y="5" width="18" height="25" rx="2" fill="#1a1a25" stroke="#3a3a4a"/>
    <rect x="176" y="2" width="18" height="28" rx="2" fill="#6366f1"/>
    <rect x="198" y="8" width="18" height="22" rx="2" fill="#1a1a25" stroke="#3a3a4a"/>
    <rect x="220" y="0" width="18" height="30" rx="2" fill="#6366f1"/>
    <rect x="242" y="6" width="18" height="24" rx="2" fill="#1a1a25" stroke="#3a3a4a"/>
    <rect x="264" y="4" width="18" height="26" rx="2" fill="#22c55e"/>
    <rect x="286" y="10" width="18" height="20" rx="2" fill="#1a1a25" stroke="#3a3a4a"/>
  </g>

  <!-- Title -->
  <text x="200" y="210" text-anchor="middle" fill="#8888a0" font-family="system-ui" font-size="14" font-weight="500">DB-303</text>
</svg>
